<svg viewBox="0 0 222.3 35.9" class="netduma">
    <g>
        <path d="M31.4,35.5h-9.5L6.5,8.7H6.2c0.3,4.7,0.5,8.1,0.5,10.1v16.7H0V0.1h9.5l15.4,26.5H25c-0.2-4.6-0.4-7.8-0.4-9.8
    V0.1h6.8L31.4,35.5L31.4,35.5z"></path>
        <path d="M56.6,35.5H36.2V0.1h20.4v6.1H43.7V14h12v6.2h-12v9.1h12.9V35.5z"></path>
        <path d="M78.1,35.5h-7.5V6.3H61V0.1h26.7v6.2h-9.6V35.5L78.1,35.5z"></path>
        <path d="M119.1,17.4c0,5.9-1.6,10.4-4.7,13.5c-3.1,3-7.7,4.6-13.7,4.6h-8.5V0.1h9.6c5.7,0,9.9,1.5,12.9,4.4
    C117.6,7.5,119.1,11.8,119.1,17.4z M116.4,17.5c0-5.1-1.3-8.9-3.9-11.5s-6.4-3.8-11.3-3.8h-6.5v31h5.9
    C111.1,33.3,116.4,28,116.4,17.5z"></path>
        <path d="M150.1,0.1V23c0,4.1-1.2,7.2-3.5,9.5c-2.4,2.3-5.7,3.4-9.9,3.4c-4.1,0-7.3-1.2-9.6-3.5
    c-2.3-2.3-3.4-5.5-3.4-9.6V0.1h2.5V23c0,3.4,0.9,6.1,2.8,8c1.9,1.9,4.5,2.8,8,2.8c3.4,0,6-0.9,7.8-2.8c1.9-1.9,2.8-4.4,2.8-7.8V0.1
    H150.1L150.1,0.1z"></path>
        <path d="M170.9,35.5L157.7,2.8h-0.2c0.1,2,0.2,4.1,0.2,6.2v26.5h-2.4V0.1h3.8l12.5,31.1h0.1l12.5-31.1h3.7v35.4h-2.5
    V8.6c0-1.9,0.1-3.8,0.3-5.8h-0.2l-13,32.7H170.9L170.9,35.5z"></path>
        <path d="M214.6,23h-14.4l-5,12.5h-2.7L206.7,0h1.6l14,35.5h-2.8L214.6,23z M201.1,20.7h12.6l-4.8-12.8
    c-0.4-1-0.9-2.4-1.5-4.2c-0.4,1.5-0.9,3-1.4,4.2L201.1,20.7z"></path>
    </g>
</svg>