<?xml version="1.0" encoding="UTF-8"?>
<svg id="Layer_1" data-name="Layer 1" xmlns="http://www.w3.org/2000/svg" width="16" height="16" viewBox="0 0 16 16">
  <rect width="16" height="16" rx="2" ry="2" style="stroke-width: 0px;"/>
  <g>
    <path d="m8.107,11.543h-1.911l-3.083-5.361h-.044c.062.946.092,1.623.092,2.027v3.335h-1.342v-7.087h1.896l3.077,5.307h.034c-.047-.919-.073-1.571-.073-1.953v-3.354h1.352v7.087h.001Z" style="fill: #fff; stroke-width: 0px;"/>
    <path d="m14.443,7.932c0,1.188-.313,2.089-.936,2.698-.624.61-1.54.913-2.748.913h-1.697v-7.087h1.915c1.133,0,1.991.296,2.581.888.591.59.885,1.454.885,2.588Zm-.539.02c0-1.015-.261-1.779-.776-2.293-.516-.511-1.272-.769-2.272-.769h-1.304v6.214h1.173c2.122.002,3.179-1.049,3.179-3.152Z" style="fill: #ff464e; stroke-width: 0px;"/>
  </g>
</svg>